<?xml version="1.0" encoding="UTF-8"?>
<svg xmlns="http://www.w3.org/2000/svg" xmlns:xlink="http://www.w3.org/1999/xlink" viewBox="0 0 60 60" width="56px" height="60px">
<g id="surface19904244">
<path style=" stroke:none;fill-rule:nonzero;fill:rgb(80.000001%,80.000001%,80.000001%);fill-opacity:1;" d="M 30 56.699219 C 15.253906 56.699219 3.300781 44.746094 3.300781 30 C 3.300781 15.253906 15.253906 3.300781 30 3.300781 C 44.746094 3.300781 56.699219 15.253906 56.699219 30 C 56.699219 44.746094 44.746094 56.699219 30 56.699219 Z M 30 56.699219 "/>
<path style=" stroke:none;fill-rule:nonzero;fill:rgb(0%,0%,0%);fill-opacity:1;" d="M 30 2.21875 C 14.625 2.21875 2.160156 14.683594 2.160156 30.058594 C 2.160156 43.105469 11.144531 54.019531 23.253906 57.039062 C 23.125 56.664062 23.039062 56.230469 23.039062 55.6875 L 23.039062 50.929688 C 21.910156 50.929688 20.015625 50.929688 19.542969 50.929688 C 17.636719 50.929688 15.941406 50.109375 15.121094 48.589844 C 14.210938 46.898438 14.050781 44.3125 11.792969 42.730469 C 11.121094 42.203125 11.632812 41.601562 12.40625 41.683594 C 13.832031 42.085938 15.015625 43.066406 16.128906 44.515625 C 17.238281 45.972656 17.757812 46.300781 19.832031 46.300781 C 20.835938 46.300781 22.339844 46.242188 23.753906 46.019531 C 24.515625 44.089844 25.832031 42.308594 27.4375 41.46875 C 18.167969 40.515625 13.742188 35.902344 13.742188 29.640625 C 13.742188 26.945312 14.890625 24.339844 16.84375 22.140625 C 16.203125 19.960938 15.398438 15.511719 17.089844 13.820312 C 21.261719 13.820312 23.78125 16.523438 24.386719 17.253906 C 26.464844 16.542969 28.75 16.140625 31.148438 16.140625 C 33.550781 16.140625 35.84375 16.542969 37.925781 17.257812 C 38.527344 16.535156 41.050781 13.820312 45.230469 13.820312 C 46.929688 15.515625 46.113281 19.980469 45.46875 22.15625 C 47.40625 24.351562 48.546875 26.949219 48.546875 29.640625 C 48.546875 35.898438 44.132812 40.507812 34.875 41.464844 C 37.421875 42.796875 39.28125 46.53125 39.28125 49.34375 L 39.28125 55.6875 C 39.28125 55.929688 39.226562 56.105469 39.199219 56.308594 C 50.046875 52.507812 57.839844 42.207031 57.839844 30.058594 C 57.839844 14.683594 45.375 2.21875 30 2.21875 Z M 30 2.21875 "/>
</g>
</svg>
