<svg xmlns="http://www.w3.org/2000/svg" x="0px" y="0px"
width="60" height="60"
viewBox="0 0 172 172"
style=" fill:#000000;"><g fill="none" fill-rule="nonzero" stroke="none" stroke-width="1" stroke-linecap="butt" stroke-linejoin="miter" stroke-miterlimit="10" stroke-dasharray="" stroke-dashoffset="0" font-family="none" font-weight="none" font-size="none" text-anchor="none" style="mix-blend-mode: normal"><path d="M0,172v-172h172v172z" fill="none" stroke="none"></path><g id="original-icon" fill="#000000" stroke="none" opacity="0" visibility="hidden"><path d="M28.66667,22.93333c-6.33533,0 -11.46667,5.13133 -11.46667,11.46667v22.93333h137.6v-22.93333c0,-6.33533 -5.13133,-11.46667 -11.46667,-11.46667zM34.4,34.4c3.1648,0 5.73333,2.56853 5.73333,5.73333c0,3.1648 -2.56853,5.73333 -5.73333,5.73333c-3.1648,0 -5.73333,-2.56853 -5.73333,-5.73333c0,-3.1648 2.56853,-5.73333 5.73333,-5.73333zM57.33333,34.4c3.1648,0 5.73333,2.56853 5.73333,5.73333c0,3.1648 -2.56853,5.73333 -5.73333,5.73333c-3.1648,0 -5.73333,-2.56853 -5.73333,-5.73333c0,-3.1648 2.56853,-5.73333 5.73333,-5.73333zM17.2,68.8v74.53333c0.00032,3.1663 2.56703,5.73302 5.73333,5.73333h126.13333c3.1663,-0.00032 5.73302,-2.56703 5.73333,-5.73333v-74.53333h-11.46667v68.8h-114.66667v-68.8zM40.13333,68.8v57.33333h40.13333v-57.33333zM97.46667,68.8c-2.06765,-0.02924 -3.99087,1.05709 -5.03322,2.843c-1.04236,1.78592 -1.04236,3.99474 0,5.78066c1.04236,1.78592 2.96558,2.87225 5.03322,2.843h28.66667c2.06765,0.02924 3.99087,-1.05709 5.03322,-2.843c1.04236,-1.78592 1.04236,-3.99474 0,-5.78066c-1.04236,-1.78592 -2.96558,-2.87225 -5.03322,-2.843zM97.46667,91.73333c-2.06765,-0.02924 -3.99087,1.05709 -5.03322,2.843c-1.04236,1.78592 -1.04236,3.99474 0,5.78066c1.04236,1.78592 2.96558,2.87225 5.03322,2.843h28.66667c2.06765,0.02924 3.99087,-1.05709 5.03322,-2.843c1.04236,-1.78592 1.04236,-3.99474 0,-5.78066c-1.04236,-1.78592 -2.96558,-2.87225 -5.03322,-2.843zM97.46667,114.66667c-2.06765,-0.02924 -3.99087,1.05709 -5.03322,2.843c-1.04236,1.78592 -1.04236,3.99474 0,5.78066c1.04236,1.78592 2.96558,2.87225 5.03322,2.843h28.66667c2.06765,0.02924 3.99087,-1.05709 5.03322,-2.843c1.04236,-1.78592 1.04236,-3.99474 0,-5.78066c-1.04236,-1.78592 -2.96558,-2.87225 -5.03322,-2.843z"></path></g><g id="subtracted-icon" fill="#000000" stroke="none"><path d="M143.33333,22.93333c6.33533,0 11.46667,5.13133 11.46667,11.46667v22.93333h-137.6v-22.93333c0,-6.33533 5.13133,-11.46667 11.46667,-11.46667zM28.66667,40.13333c0,3.1648 2.56853,5.73333 5.73333,5.73333c3.1648,0 5.73333,-2.56853 5.73333,-5.73333c0,-3.1648 -2.56853,-5.73333 -5.73333,-5.73333c-3.1648,0 -5.73333,2.56853 -5.73333,5.73333zM51.6,40.13333c0,3.1648 2.56853,5.73333 5.73333,5.73333c3.1648,0 5.73333,-2.56853 5.73333,-5.73333c0,-3.1648 -2.56853,-5.73333 -5.73333,-5.73333c-3.1648,0 -5.73333,2.56853 -5.73333,5.73333zM28.66667,68.8v68.8h51.91484c0.43941,3.97592 1.33044,7.81562 2.62068,11.46667h-60.26886c-3.1663,-0.00032 -5.73302,-2.56703 -5.73333,-5.73333v-74.53333zM143.33333,68.8h11.46667v16.82932c-3.60337,-1.79047 -7.44581,-3.17214 -11.46667,-4.08432zM80.26667,68.8v57.33333h-40.13333v-57.33333zM126.13333,68.8c2.06765,-0.02924 3.99087,1.05709 5.03322,2.843c1.04236,1.78592 1.04236,3.99474 0,5.78066c-1.04236,1.78592 -2.96558,2.87225 -5.03322,2.843h-28.66667c-2.06765,0.02924 -3.99087,-1.05709 -5.03322,-2.843c-1.04236,-1.78592 -1.04236,-3.99474 0,-5.78066c1.04236,-1.78592 2.96558,-2.87225 5.03322,-2.843zM92.43344,94.57634c1.04236,-1.78592 2.96558,-2.87225 5.03322,-2.843l1.96258,0c-2.75077,2.22597 -5.26806,4.72905 -7.50942,7.46679c-0.48401,-1.52608 -0.3128,-3.20785 0.51361,-4.62379z"></path></g><g fill="#000000" stroke="none"><g id="Layer_1"><path d="M131.86667,91.73333c-22.16507,0 -40.13333,17.96827 -40.13333,40.13333c0,22.16507 17.96827,40.13333 40.13333,40.13333c22.16507,0 40.13333,-17.96827 40.13333,-40.13333c0,-22.16507 -17.96827,-40.13333 -40.13333,-40.13333zM149.06667,137.6h-11.46667v11.46667c0,3.17053 -2.56853,5.73333 -5.73333,5.73333c-3.1648,0 -5.73333,-2.5628 -5.73333,-5.73333v-11.46667h-11.46667c-3.1648,0 -5.73333,-2.5628 -5.73333,-5.73333c0,-3.17053 2.56853,-5.73333 5.73333,-5.73333h11.46667v-11.46667c0,-3.17053 2.56853,-5.73333 5.73333,-5.73333c3.1648,0 5.73333,2.5628 5.73333,5.73333v11.46667h11.46667c3.1648,0 5.73333,2.5628 5.73333,5.73333c0,3.17053 -2.56853,5.73333 -5.73333,5.73333z"></path></g><g id="Layer_1" opacity="0"><path d="M131.86667,80.26667c-28.5004,0 -51.6,23.0996 -51.6,51.6c0,28.5004 23.0996,51.6 51.6,51.6c28.5004,0 51.6,-23.0996 51.6,-51.6c0,-28.5004 -23.0996,-51.6 -51.6,-51.6z"></path></g></g><path d="M91.73333,172v-80.26667h80.26667v80.26667z" id="overlay-drag" fill="#fe0100" stroke="none" opacity="0"></path></g></svg>