<?xml version="1.0" standalone="no"?>
<!DOCTYPE svg PUBLIC "-//W3C//DTD SVG 20010904//EN"
 "http://www.w3.org/TR/2001/REC-SVG-20010904/DTD/svg10.dtd">
<svg version="1.0" xmlns="http://www.w3.org/2000/svg"
 width="60.000000pt" height="60.000000pt" viewBox="0 0 60.000000 60.000000"
 preserveAspectRatio="xMidYMid meet">

<g transform="translate(0.000000,60.000000) scale(0.100000,-0.100000)"
fill="#000000" stroke="none">
<path d="M72 318 c3 -191 3 -192 26 -198 13 -3 22 -9 20 -15 -2 -6 72 -11 205
-13 l207 -2 -2 192 c-3 185 -4 193 -23 193 -11 0 -20 7 -20 15 0 13 -31 15
-208 18 l-207 2 2 -192z m213 152 c-150 -4 -170 -7 -170 -22 0 -9 -4 -20 -8
-24 -4 -4 -7 7 -7 24 l0 32 178 -2 177 -2 -170 -6z m215 -50 l0 -30 -180 0
-180 0 0 23 c0 13 3 27 7 30 3 4 84 7 180 7 l173 0 0 -30z m-387 -146 c-1 -64
-4 -119 -7 -122 -3 -3 -6 49 -6 116 0 67 3 122 8 122 4 0 6 -52 5 -116z m387
-34 l0 -120 -180 0 -180 0 0 113 c0 63 3 117 7 120 3 4 84 7 180 7 l173 0 0
-120z"/>
<path d="M372 419 c2 -6 8 -10 13 -10 5 0 11 4 13 10 2 6 -4 11 -13 11 -9 0
-15 -5 -13 -11z"/>
<path d="M417 424 c-8 -8 1 -24 14 -24 5 0 9 7 9 15 0 15 -12 20 -23 9z"/>
<path d="M460 414 c0 -17 22 -14 28 4 2 7 -3 12 -12 12 -9 0 -16 -7 -16 -16z"/>
<path d="M190 278 c1 -47 30 -78 43 -45 4 10 6 10 6 0 2 -22 31 -14 31 7 0 11
5 20 10 20 6 0 10 -9 10 -20 0 -22 25 -28 33 -7 4 10 6 10 6 0 2 -22 31 -14
31 7 0 11 5 20 10 20 6 0 10 -9 10 -20 0 -22 25 -28 33 -7 4 10 6 10 6 0 2
-26 30 -12 36 18 8 34 -1 51 -15 29 -6 -8 -10 -10 -10 -5 0 6 -18 11 -40 12
-23 1 -40 -3 -40 -9 0 -7 -4 -7 -13 1 -10 8 -17 7 -25 -1 -9 -9 -12 -9 -12 0
0 7 -9 12 -20 12 -11 0 -20 -5 -20 -12 0 -9 -3 -9 -12 0 -8 8 -15 9 -25 1 -9
-8 -13 -8 -13 0 0 6 -4 11 -10 11 -5 0 -10 -6 -10 -12z"/>
</g>
</svg>
