<svg xmlns="http://www.w3.org/2000/svg" x="0px" y="0px"
width="60" height="60"
viewBox="0 0 172 172"
style=" fill:#000000;"><g fill="none" fill-rule="nonzero" stroke="none" stroke-width="1" stroke-linecap="butt" stroke-linejoin="miter" stroke-miterlimit="10" stroke-dasharray="" stroke-dashoffset="0" font-family="none" font-weight="none" font-size="none" text-anchor="none" style="mix-blend-mode: normal"><path d="M0,172v-172h172v172z" fill="none" stroke="none"></path><g id="original-icon" fill="#000000" stroke="none" opacity="0" visibility="hidden"><path d="M28.66667,22.93333c-6.33533,0 -11.46667,5.13133 -11.46667,11.46667v22.93333h137.6v-22.93333c0,-6.33533 -5.13133,-11.46667 -11.46667,-11.46667zM34.4,34.4c3.1648,0 5.73333,2.56853 5.73333,5.73333c0,3.1648 -2.56853,5.73333 -5.73333,5.73333c-3.1648,0 -5.73333,-2.56853 -5.73333,-5.73333c0,-3.1648 2.56853,-5.73333 5.73333,-5.73333zM57.33333,34.4c3.1648,0 5.73333,2.56853 5.73333,5.73333c0,3.1648 -2.56853,5.73333 -5.73333,5.73333c-3.1648,0 -5.73333,-2.56853 -5.73333,-5.73333c0,-3.1648 2.56853,-5.73333 5.73333,-5.73333zM17.2,68.8v74.53333c0.00032,3.1663 2.56703,5.73302 5.73333,5.73333h126.13333c3.1663,-0.00032 5.73302,-2.56703 5.73333,-5.73333v-74.53333h-11.46667v68.8h-114.66667v-68.8zM40.13333,68.8v57.33333h40.13333v-57.33333zM97.46667,68.8c-2.06765,-0.02924 -3.99087,1.05709 -5.03322,2.843c-1.04236,1.78592 -1.04236,3.99474 0,5.78066c1.04236,1.78592 2.96558,2.87225 5.03322,2.843h28.66667c2.06765,0.02924 3.99087,-1.05709 5.03322,-2.843c1.04236,-1.78592 1.04236,-3.99474 0,-5.78066c-1.04236,-1.78592 -2.96558,-2.87225 -5.03322,-2.843zM97.46667,91.73333c-2.06765,-0.02924 -3.99087,1.05709 -5.03322,2.843c-1.04236,1.78592 -1.04236,3.99474 0,5.78066c1.04236,1.78592 2.96558,2.87225 5.03322,2.843h28.66667c2.06765,0.02924 3.99087,-1.05709 5.03322,-2.843c1.04236,-1.78592 1.04236,-3.99474 0,-5.78066c-1.04236,-1.78592 -2.96558,-2.87225 -5.03322,-2.843zM97.46667,114.66667c-2.06765,-0.02924 -3.99087,1.05709 -5.03322,2.843c-1.04236,1.78592 -1.04236,3.99474 0,5.78066c1.04236,1.78592 2.96558,2.87225 5.03322,2.843h28.66667c2.06765,0.02924 3.99087,-1.05709 5.03322,-2.843c1.04236,-1.78592 1.04236,-3.99474 0,-5.78066c-1.04236,-1.78592 -2.96558,-2.87225 -5.03322,-2.843z"></path></g><g id="subtracted-icon" fill="#000000" stroke="none"><path d="M143.33333,22.93333c6.33533,0 11.46667,5.13133 11.46667,11.46667v22.93333h-137.6v-22.93333c0,-6.33533 5.13133,-11.46667 11.46667,-11.46667zM28.66667,40.13333c0,3.1648 2.56853,5.73333 5.73333,5.73333c3.1648,0 5.73333,-2.56853 5.73333,-5.73333c0,-3.1648 -2.56853,-5.73333 -5.73333,-5.73333c-3.1648,0 -5.73333,2.56853 -5.73333,5.73333zM51.6,40.13333c0,3.1648 2.56853,5.73333 5.73333,5.73333c3.1648,0 5.73333,-2.56853 5.73333,-5.73333c0,-3.1648 -2.56853,-5.73333 -5.73333,-5.73333c-3.1648,0 -5.73333,2.56853 -5.73333,5.73333zM28.66667,68.8v68.8h40.14623c-0.00061,3.96587 1.01859,7.93187 3.05761,11.46667h-48.93718c-3.1663,-0.00032 -5.73302,-2.56703 -5.73333,-5.73333v-74.53333zM143.33333,68.8h11.46667v23.65313c-3.93092,1.00787 -7.53625,3.05364 -10.4791,6.00039l-0.98757,0.98738zM80.26667,68.8v48.93051c-1.71374,0.99332 -3.30874,2.21741 -4.74577,3.65634c-1.45073,1.45073 -2.66614,3.04882 -3.64625,4.74648h-31.74131v-57.33333zM126.13333,68.8c2.06765,-0.02924 3.99087,1.05709 5.03322,2.843c1.04236,1.78592 1.04236,3.99474 0,5.78066c-1.04236,1.78592 -2.96558,2.87225 -5.03322,2.843h-28.66667c-2.06765,0.02924 -3.99087,-1.05709 -5.03322,-2.843c-1.04236,-1.78592 -1.04236,-3.99474 0,-5.78066c1.04236,-1.78592 2.96558,-2.87225 5.03322,-2.843zM126.13333,91.73333c2.06765,-0.02924 3.99087,1.05709 5.03322,2.843c1.04236,1.78592 1.04236,3.99474 0,5.78066c-1.04236,1.78592 -2.96558,2.87225 -5.03322,2.843h-28.66667c-2.06765,0.02924 -3.99087,-1.05709 -5.03322,-2.843c-1.04236,-1.78592 -1.04236,-3.99474 0,-5.78066c1.04236,-1.78592 2.96558,-2.87225 5.03322,-2.843zM126.13333,114.66667c0.59436,-0.00841 1.17679,0.07537 1.72979,0.24145l-11.22739,11.22522h-3.93656l-4.75054,-4.74648c-3.4225,-3.42703 -7.74103,-5.63545 -12.42566,-6.40989c0.61584,-0.21161 1.27215,-0.31979 1.9437,-0.31029z"></path></g><g fill="#000000" stroke="none"><g id="Layer_1"><path d="M168.6417,122.7736l-45.86667,45.86667c-2.24173,2.24173 -5.17147,3.35973 -8.10693,3.35973c-2.93547,0 -5.8652,-1.118 -8.10693,-3.35973l-22.93333,-22.93333c-4.47773,-4.47773 -4.47773,-11.73613 0,-16.21387c4.47773,-4.47773 11.73613,-4.47773 16.21387,0l14.8264,14.8264l37.75973,-37.75973c4.47773,-4.47773 11.73613,-4.47773 16.21387,0c4.47773,4.47773 4.47773,11.73613 0,16.21387z"></path></g><g id="Layer_1" opacity="0"><path d="M176.74863,98.45352c-4.32867,-4.3344 -10.09067,-6.71947 -16.21387,-6.71947c-6.1232,0 -11.8852,2.38507 -16.21387,6.71947l-29.6528,29.64707l-6.71947,-6.71373c-4.32867,-4.3344 -10.09067,-6.71947 -16.21387,-6.71947c-6.1232,0 -11.8852,2.38507 -16.21387,6.71947c-8.944,8.944 -8.944,23.48947 0,32.43347l22.93333,22.93333c4.32867,4.32867 10.09067,6.71373 16.21387,6.71373c6.1232,0 11.8852,-2.38507 16.21387,-6.71947l45.86667,-45.86667c8.944,-8.93827 8.944,-23.48947 0,-32.42773z"></path></g></g><path d="M80.26953,172v-68.79857h91.73047v68.79857z" id="overlay-drag" fill="#fe0100" stroke="none" opacity="0"></path></g></svg>